<svg width="36" height="36" viewBox="0 0 36 36" fill="none" xmlns="http://www.w3.org/2000/svg">
<path d="M7.506 10.5H7.4625C7.00192 10.5288 6.54035 10.4622 6.10671 10.3043C5.67306 10.1465 5.27667 9.9008 4.94235 9.58268C4.60804 9.26456 4.34301 8.88085 4.16384 8.45556C3.98468 8.03028 3.89525 7.57259 3.90115 7.11114C3.90705 6.6497 4.00816 6.19444 4.19814 5.77388C4.38812 5.35332 4.66288 4.97651 5.00522 4.66704C5.34756 4.35758 5.7501 4.12212 6.18765 3.97542C6.62519 3.82872 7.08831 3.77393 7.548 3.81449C8.00859 3.78231 8.47086 3.84562 8.90584 4.00045C9.34082 4.15528 9.73913 4.39829 10.0758 4.71424C10.4125 5.0302 10.6803 5.4123 10.8624 5.83658C11.0445 6.26087 11.137 6.71819 11.1341 7.1799C11.1312 7.6416 11.0329 8.09773 10.8455 8.51969C10.6581 8.94165 10.3855 9.32035 10.0449 9.63206C9.70429 9.94376 9.30296 10.1817 8.86607 10.3311C8.42918 10.4804 7.96615 10.5379 7.506 10.5Z" fill="#2D76F9"/>
<path d="M4.52701 15H10.527V33H4.52701V15Z" fill="#2D76F9"/>
<path d="M26.277 15C25.266 15.0027 24.2687 15.2339 23.3596 15.6763C22.4505 16.1186 21.6531 16.7607 21.027 17.5545V15H15.027V33H21.027V24.75C21.027 23.9544 21.3431 23.1913 21.9057 22.6287C22.4683 22.0661 23.2314 21.75 24.027 21.75C24.8227 21.75 25.5857 22.0661 26.1483 22.6287C26.7109 23.1913 27.027 23.9544 27.027 24.75V33H33.027V21.75C33.027 19.9598 32.3158 18.2429 31.05 16.977C29.7841 15.7112 28.0672 15 26.277 15Z" fill="#2D76F9"/>
</svg>
