<svg width="30" height="26" viewBox="0 0 30 26" fill="none" xmlns="http://www.w3.org/2000/svg">
<path d="M30 3.69404C28.8766 4.19201 27.6848 4.51864 26.4645 4.66304C27.7503 3.89422 28.7126 2.684 29.172 1.25804C27.9639 1.97575 26.6418 2.48107 25.263 2.75204C24.4182 1.85268 23.3227 1.22788 22.1185 0.958653C20.9143 0.689432 19.657 0.788211 18.5096 1.24218C17.3622 1.69615 16.3777 2.48437 15.6837 3.50463C14.9897 4.52489 14.6183 5.73012 14.6175 6.96404C14.6167 7.436 14.6695 7.90652 14.775 8.36654C12.3281 8.2437 9.93445 7.60773 7.74929 6.4999C5.56413 5.39207 3.63632 3.83715 2.091 1.93604C1.30389 3.29108 1.06275 4.89514 1.41666 6.4217C1.77058 7.94827 2.69294 9.28259 3.996 10.153C3.01789 10.1231 2.06119 9.8592 1.206 9.38354V9.46154C1.20624 10.8827 1.69809 12.2601 2.59812 13.36C3.49815 14.4599 4.75095 15.2146 6.144 15.496C5.61553 15.6397 5.07016 15.7119 4.5225 15.7105C4.13348 15.7107 3.74529 15.6746 3.363 15.6025C3.75608 16.8253 4.52139 17.8946 5.55197 18.6611C6.58255 19.4276 7.82688 19.8529 9.111 19.8775C6.53013 21.8975 3.25412 22.8128 0 22.423C2.81408 24.232 6.08962 25.1923 9.435 25.189C11.7387 25.2046 14.0224 24.7623 16.1537 23.8879C18.285 23.0134 20.2213 21.7242 21.8502 20.0952C23.4791 18.4662 24.7681 16.5297 25.6424 14.3984C26.5167 12.267 26.9587 9.98319 26.943 7.67954C26.943 7.41254 26.9365 7.14754 26.9235 6.88454C28.1303 6.01214 29.1721 4.93177 30 3.69404Z" fill="#2D76F9"/>
</svg>
